<svg version="1.2" xmlns="http://www.w3.org/2000/svg" viewBox="0 0 69 79" width="69" height="79"><style>.a{fill:#1c3f94}</style><path fill-rule="evenodd" class="a" d="m0.9-0.1v50.6q1.2 0 2.4 0c11.6 0 21.7 0.5 30.1 1.6 27.2 3.5 30.1 8.4 30.1 10.3 0 3.7-4.9 6.6-14.5 8.8-16.9 3.7-41.7 4.1-41.9 4.1l-0.1-1.2c9-0.8 32.9-4 34.9-9.1q0.4-1-0.6-2.2c-2.5-2.7-13.1-6.2-31.4-8.1-2.7-0.2-5.7-0.5-9-0.6v24.1h67.7v-78.3zm62.7 29.7c0 0-0.4 0.4-1.3 0.5-1.2 0.2-2 0.3-3.4 0.5-1.5 0.3-2.3 0.5-4.5 1.5-2.1 1-3 1.5-4.9 2.5-1.9 0.9-3.9 2.2-6 2.6-2.3 0.5-4.2 0.4-6.3 0.3-2.1-0.2-3-0.2-5.8-0.6-3.1-0.5-4.4-0.8-6.3-1.3-1.9-0.5-3.1-1-4.4-1.7-0.9-0.5-2.1-1.1-2.3-2.1-0.2-0.9 0.8-2.2 1.6-2.9 1.1-0.9 2-1.2 2.7-2.1 0.6-0.8 1.3-7.2 1.9-9.2 0.8-2.2 1.4-3.9 2.4-5.4 1-1.6 2.5-2.7 4.2-3.6 1.9-0.9 2.7-1.1 4.4-1.6 1.8-0.5 4.3-0.8 6.7-0.8 1.6 0 2.9 0.1 4.3 0.3 2.4 0.5 3.2 0.8 5.4 1.7 2 0.7 3.7 1.7 5.2 3.2 1.3 1.2 2 2 3.1 4.3 0.8 1.7 1.1 3.2 1.4 5.3 0.2 1.8 0.4 3.6 0.4 5.1 0 1.5 0.1 1.9 0.6 2.1 0.5 0.3 1 0.2 1.3 0.7 0.2 0.4-0.4 0.7-0.4 0.7z"/></svg>