<svg version="1.2" xmlns="http://www.w3.org/2000/svg" viewBox="0 0 69 79" width="69" height="79"><style>.a{fill:#34a7df}</style><path fill-rule="evenodd" class="a" d="m1 0v50.5q1.2 0 2.4 0c11.6 0 21.7 0.6 30.1 1.7 27.2 3.4 30.1 8.3 30.1 10.3 0 3.6-4.8 6.6-14.5 8.7-16.9 3.8-41.7 4.2-41.9 4.2l-0.1-1.2c9.1-0.8 32.9-4 34.9-9.1q0.5-1-0.6-2.2c-2.5-2.7-13.1-6.2-31.4-8.1-2.7-0.3-5.7-0.5-9-0.7v24.1h67.8v-78.2zm58.1 15.4c-3.9 2.9-8 4.3-9.9 3.5-2.4 1.8-3.8 4-4.7 5.8 0.4 0.5 0.4 1.2 0.2 1.8q-0.1 0.4-0.4 0.7l3.3 11-39.1 8.1 22-25.7 10.8 3.3c0.4-0.3 0.9-0.4 1.5-0.4 0.9-1.9 2.5-4.4 5.1-6.3-0.1-2.2 2.3-5.6 6.1-8.5 4.5-3.5 9.3-4.8 10.7-2.9 1.5 1.8-1.1 6.1-5.6 9.6z"/></svg>