<svg version="1.2" xmlns="http://www.w3.org/2000/svg" viewBox="0 0 69 79" width="69" height="79"><style>.a{fill:#8f64cb}</style><path class="a" d="m60.5 0l-24.4 40.5c-0.4 1-1.1 1.9-2.1 2.5-2.5 1.6-5.9 0.8-7.4-1.7l-11-17.8c-1.5-2.5-0.8-5.8 1.8-7.4 2.5-1.5 5.8-0.8 7.4 1.7l6.2 10.2 16.9-28h-47.2v49.2q1.2 0 2.5 0c11.4 0 21.3 0.6 29.6 1.6 26.8 3.5 29.7 8.3 29.7 10.2 0 3.6-4.8 6.5-14.3 8.6-16.7 3.8-41.1 4.2-41.4 4.2v-1.2c8.9-0.8 32.5-4 34.4-9q0.5-1-0.6-2.2c-2.4-2.7-12.9-6.1-31-8-2.6-0.2-5.6-0.5-8.9-0.6v25.4h67.8v-78.2z"/></svg>