<svg version="1.2" xmlns="http://www.w3.org/2000/svg" viewBox="0 0 2866 1677" width="2866" height="1677"><style>.a{opacity:.1;fill:#1c3f94}.b{opacity:.3;fill:#fff}</style><path fill-rule="evenodd" class="a" d="m0 0.8h223.5c247.6 57.5 696.9 95.9 1210 95.9 513.1 0 962.4-38.4 1210-95.9h222.5v1676.2h-2866z"/><path class="b" d="m1878.4 232.2c36 20.5 55.8 42.7 55.8 66.4 0 139-633.5 193.8-881.5 201.7-3.8 0-1.7 4 4.8 4 636.2-1.6 1231.4-137.3 820.9-272.1m-53.2 50.5c0-151.8-889.3-241.2-1562.7-145.9-2.6 0.5-1.7 4.7 5.1 4.1 581-42.6 1240.1 38.8 1240.1 164.6 0 68.8-181.4 125.7-499.7 158.2-4.1 0.9-2.7 3.6 4.3 3.6 227.1-7.2 812.9-57.3 812.9-184.6"/></svg>