<svg version="1.2" xmlns="http://www.w3.org/2000/svg" viewBox="0 0 39 44" width="39" height="44"><style>.a{fill:#8f64cb}</style><path class="a" d="m34.2 0l-13.7 22.7c-0.2 0.5-0.6 1-1.1 1.4-1.5 0.9-3.3 0.4-4.2-1l-6.1-9.9c-0.9-1.5-0.5-3.3 0.9-4.2 1.5-0.9 3.3-0.4 4.2 1l3.5 5.7 9.5-15.7h-26.5v27.6q0.7 0 1.4 0c6.4 0 12 0.3 16.6 0.8 15 2 16.7 4.7 16.7 5.8 0 2-2.7 3.6-8.1 4.8-9.3 2.1-23 2.3-23.1 2.3l-0.1-0.7c5-0.4 18.2-2.2 19.3-5q0.3-0.6-0.3-1.2c-1.4-1.5-7.3-3.5-17.4-4.5q-2.2-0.2-5-0.3v14.2h38v-43.8z"/></svg>